<svg xmlns="http://www.w3.org/2000/svg" width="737" height="1208" viewBox="0 0 737 1208">
<g>
<path d="M 35.40 1154.48 C33.70,1153.73 31.56,1151.98 30.65,1150.60 C29.13,1148.27 29.00,1134.89 29.00,982.90 L 29.00 817.74 L 32.56 814.37 L 36.13 811.01 L 113.31 810.76 L 190.50 810.50 L 190.50 787.50 L 190.50 764.50 L 113.00 764.00 C30.42,763.47 32.81,763.62 28.77,758.63 C27.16,756.64 27.04,748.44 27.02,631.85 L 27.00 507.21 L 30.53 504.10 L 34.07 501.00 L 66.03 501.00 L 98.00 501.00 L 98.00 379.03 L 98.00 257.07 L 101.32 253.75 C103.15,251.92 106.46,249.88 108.69,249.21 C111.70,248.31 131.81,248.00 187.37,248.00 L 262.00 248.00 L 262.00 152.40 C262.00,44.68 261.48,51.88 269.57,48.07 L 273.98 46.00 L 476.62 46.00 C629.05,46.00 680.24,46.29 683.19,47.18 C685.35,47.82 688.22,49.66 689.56,51.25 L 692.00 54.15 L 692.00 217.04 L 692.00 379.93 L 688.47 383.46 L 684.94 386.99 L 551.72 387.25 L 418.50 387.50 L 418.00 478.18 C417.50,568.26 417.49,568.87 415.41,571.68 C414.25,573.23 411.55,575.51 409.41,576.73 C405.57,578.93 404.90,578.97 369.75,578.98 L 334.00 579.00 L 334.00 602.00 L 334.00 625.00 L 374.77 625.00 C420.77,625.00 420.44,624.95 424.45,632.59 C426.48,636.47 426.50,637.60 426.80,773.50 C427.01,873.87 426.79,911.57 425.95,914.50 C424.77,918.64 421.97,922.33 418.50,924.34 C417.09,925.16 401.13,925.65 364.00,926.00 L 311.50 926.50 L 311.00 1036.00 C310.45,1156.79 310.90,1149.14 304.10,1153.71 L 300.70 1156.00 L 169.60 1155.92 C61.47,1155.85 37.96,1155.60 35.40,1154.48 ZM 285.50 1028.50 L 285.50 926.50 L 243.00 926.00 C202.48,925.52 200.37,925.41 197.82,923.50 C196.34,922.40 194.20,919.86 193.07,917.86 C191.07,914.36 191.00,912.82 191.00,875.11 L 191.00 836.00 L 122.50 836.00 L 54.00 836.00 L 54.00 983.50 L 54.00 1131.01 L 169.75 1130.75 L 285.50 1130.50 L 285.50 1028.50 ZM 285.50 868.50 L 285.50 836.50 L 250.75 836.24 L 216.00 835.97 L 216.00 868.50 L 216.00 901.03 L 250.75 900.76 L 285.50 900.50 L 285.50 868.50 ZM 401.00 776.00 L 401.00 651.00 L 367.50 651.00 L 334.00 651.00 L 334.00 703.04 C334.00,760.53 334.26,758.15 327.60,761.80 C324.83,763.32 318.83,763.55 270.50,764.00 L 216.50 764.50 L 216.50 787.50 L 216.50 810.50 L 258.92 810.76 L 301.34 811.02 L 304.68 813.57 C310.90,818.31 311.00,819.07 311.00,862.12 L 311.00 901.00 L 356.00 901.00 L 401.00 901.00 L 401.00 776.00 ZM 191.02 687.75 L 191.03 636.50 L 193.28 632.50 C197.62,624.78 195.75,625.00 255.75,625.00 L 309.00 625.00 L 309.00 602.00 L 309.00 579.00 L 209.34 579.00 L 109.68 579.00 L 105.48 576.54 C98.20,572.28 98.07,571.80 97.77,547.82 L 97.50 526.50 L 74.75 526.23 L 52.00 525.96 L 52.00 632.48 L 52.00 739.00 L 121.50 739.00 L 191.00 739.00 L 191.02 687.75 ZM 309.00 695.00 L 309.00 651.00 L 262.50 651.00 L 216.00 651.00 L 216.00 695.00 L 216.00 739.00 L 262.50 739.00 L 309.00 739.00 L 309.00 695.00 ZM 308.50 540.00 L 308.50 526.50 L 216.00 526.50 L 123.50 526.50 L 123.22 538.94 C123.06,545.79 123.16,551.98 123.44,552.70 C123.85,553.77 140.86,553.96 216.22,553.76 L 308.50 553.50 L 308.50 540.00 ZM 392.50 470.50 L 392.50 387.50 L 330.94 387.24 L 269.38 386.98 L 265.94 383.44 L 262.50 379.89 L 262.22 326.95 L 261.95 274.00 L 192.47 274.00 L 122.99 274.00 L 123.25 387.25 L 123.50 500.50 L 225.00 501.00 C324.54,501.49 326.55,501.54 329.18,503.50 C330.66,504.60 332.34,506.53 332.93,507.80 C333.58,509.20 334.00,518.38 334.00,531.38 C334.00,543.09 334.31,552.97 334.68,553.35 C335.06,553.72 348.22,553.91 363.93,553.77 L 392.50 553.50 L 392.50 470.50 ZM 393.00 318.00 L 393.00 274.00 L 340.50 274.00 L 288.00 274.00 L 288.00 318.00 L 288.00 362.00 L 340.50 362.00 L 393.00 362.00 L 393.00 318.00 ZM 666.75 216.75 L 666.50 71.50 L 477.25 71.25 L 288.00 70.99 L 288.00 159.50 L 288.00 248.00 L 345.75 248.04 C406.54,248.09 408.26,248.21 413.15,252.63 C417.91,256.94 418.00,258.08 418.00,310.96 C418.00,338.30 418.30,360.97 418.67,361.33 C419.03,361.70 475.06,362.00 543.17,362.00 L 667.01 362.00 L 666.75 216.75 Z" fill="rgba(0,119,192,1)"/>
</g>
</svg>