<svg xmlns="http://www.w3.org/2000/svg" width="268" height="260" viewBox="0 0 268 260">
<g>
<path d="M 109.30 257.65 C106.74,258.72 96.79,258.99 61.78,258.96 C20.11,258.91 17.29,258.80 13.87,256.99 C9.19,254.52 5.35,249.91 4.04,245.22 C3.39,242.86 3.01,220.29 3.01,183.43 L 3.00 125.36 L 5.75 119.97 C7.86,115.83 9.53,114.04 12.91,112.29 C17.31,110.00 17.40,110.00 61.84,110.00 C105.00,110.00 106.50,110.06 110.70,112.10 C113.71,113.55 115.86,115.61 117.76,118.85 L 120.50 123.50 L 120.78 182.28 C120.97,221.84 120.71,242.36 119.99,245.04 C118.68,249.91 113.66,255.83 109.30,257.65 ZM 245.28 151.94 C242.91,152.60 226.16,152.97 200.50,152.95 C157.38,152.91 155.20,152.71 149.06,148.24 C147.65,147.22 145.49,144.40 144.25,141.98 L 142.00 137.58 L 142.00 17.31 L 144.29 12.91 C146.04,9.53 147.83,7.86 151.97,5.75 L 157.36 3.00 L 200.43 3.04 C245.65,3.09 248.39,3.33 253.17,7.65 C254.29,8.67 256.06,11.17 257.11,13.21 C258.90,16.73 259.00,20.03 259.00,77.49 C259.00,126.10 258.73,138.70 257.65,141.30 C255.86,145.57 249.98,150.63 245.28,151.94 ZM 111.01 85.85 L 106.50 88.50 L 63.50 88.68 C39.85,88.79 19.27,88.49 17.76,88.02 C11.92,86.22 7.79,82.74 5.39,77.60 C3.09,72.65 3.02,71.76 3.02,46.50 C3.01,30.59 3.44,18.96 4.12,16.52 C5.53,11.43 11.43,5.53 16.52,4.12 C19.14,3.39 35.01,3.02 63.00,3.03 C110.27,3.05 110.52,3.08 116.27,9.90 C120.68,15.16 121.14,18.99 120.81,47.83 C120.50,74.15 120.47,74.56 118.01,78.85 C116.48,81.53 113.79,84.21 111.01,85.85 ZM 248.79 257.11 C245.31,258.88 242.28,259.00 200.79,259.00 C157.52,259.00 156.40,258.95 152.17,256.85 C149.63,255.60 146.73,253.04 145.17,250.68 L 142.50 246.65 L 142.19 218.58 C141.99,200.74 142.26,189.18 142.94,186.89 C144.43,181.80 147.67,178.06 152.42,175.90 C156.19,174.18 159.84,174.04 200.68,174.02 C229.53,174.01 245.85,174.37 247.68,175.06 C249.23,175.65 251.79,177.34 253.37,178.81 C258.76,183.85 259.00,185.44 259.00,216.52 C259.00,240.89 258.76,245.57 257.38,248.30 C255.08,252.84 253.03,254.94 248.79,257.11 Z" fill="rgb(0,0,0)"/>
<path d="M 0.00 130.00 L 0.00 0.00 L 134.00 0.00 L 268.00 0.00 L 268.00 130.00 L 268.00 260.00 L 134.00 260.00 L 0.00 260.00 L 0.00 130.00 ZM 109.30 257.65 C113.66,255.83 118.68,249.91 119.99,245.04 C120.71,242.36 120.97,221.84 120.78,182.28 L 120.50 123.50 L 117.76 118.85 C115.86,115.61 113.71,113.55 110.70,112.10 C106.50,110.06 105.00,110.00 61.84,110.00 C17.40,110.00 17.31,110.00 12.91,112.29 C9.53,114.04 7.86,115.83 5.75,119.97 L 3.00 125.36 L 3.01 183.43 C3.01,220.29 3.39,242.86 4.04,245.22 C5.35,249.91 9.19,254.52 13.87,256.99 C17.29,258.80 20.11,258.91 61.78,258.96 C96.79,258.99 106.74,258.72 109.30,257.65 ZM 248.79 257.11 C253.03,254.94 255.08,252.84 257.38,248.30 C258.76,245.57 259.00,240.89 259.00,216.52 C259.00,185.44 258.76,183.85 253.37,178.81 C251.79,177.34 249.23,175.65 247.68,175.06 C245.85,174.37 229.53,174.01 200.68,174.02 C159.84,174.04 156.19,174.18 152.42,175.90 C147.67,178.06 144.43,181.80 142.94,186.89 C142.26,189.18 141.99,200.74 142.19,218.58 L 142.50 246.65 L 145.17 250.68 C146.73,253.04 149.63,255.60 152.17,256.85 C156.40,258.95 157.52,259.00 200.79,259.00 C242.28,259.00 245.31,258.88 248.79,257.11 ZM 245.28 151.94 C249.98,150.63 255.86,145.57 257.65,141.30 C258.73,138.70 259.00,126.10 259.00,77.49 C259.00,20.03 258.90,16.73 257.11,13.21 C256.06,11.17 254.29,8.67 253.17,7.65 C248.39,3.33 245.65,3.09 200.43,3.04 L 157.36 3.00 L 151.97 5.75 C147.83,7.86 146.04,9.53 144.29,12.91 L 142.00 17.31 L 142.00 77.45 L 142.00 137.58 L 144.25 141.98 C145.49,144.40 147.65,147.22 149.06,148.24 C155.20,152.71 157.38,152.91 200.50,152.95 C226.16,152.97 242.91,152.60 245.28,151.94 ZM 111.01 85.85 C113.79,84.21 116.48,81.53 118.01,78.85 C120.47,74.56 120.50,74.15 120.81,47.83 C121.14,18.99 120.68,15.16 116.27,9.90 C110.52,3.08 110.27,3.05 63.00,3.03 C35.01,3.02 19.14,3.39 16.52,4.12 C11.43,5.53 5.53,11.43 4.12,16.52 C3.44,18.96 3.01,30.59 3.02,46.50 C3.02,71.76 3.09,72.65 5.39,77.60 C7.79,82.74 11.92,86.22 17.76,88.02 C19.27,88.49 39.85,88.79 63.50,88.68 L 106.50 88.50 L 111.01 85.85 Z" fill="rgb(246,246,246)"/>
</g>
</svg>